<?xml version="1.0" encoding="iso-8859-1"?>
<svg version="1.1" id="Layer_1" xmlns="http://www.w3.org/2000/svg" xmlns:xlink="http://www.w3.org/1999/xlink" x="0px" y="0px"
	 viewBox="0 0 512 512" style="enable-background:new 0 0 512 512;" xml:space="preserve">
<circle style="fill:#273B7A;" cx="256" cy="256" r="256"/>
<path style="fill:#121149;" d="M294.14,509.169C417.433,490.751,512,384.424,512,256c0-5.349-0.184-10.654-0.507-15.922
	L362.225,89.148l-64.141,118.51L181.332,89.148l-29.901,26.626l127.452,127.454l-29.22,54.131l24.631,24.631l-75.345,12.466
	l48.787,50.047l-45.742,30.848L294.14,509.169z"/>
<path style="fill:#D35933;" d="M239.676,151.173c0-13.567-10.999-24.566-24.566-24.566c-2.796,0-5.472,0.49-7.975,1.35
	c-5.141-6.77-12.84-11.466-21.669-12.655c1.583-3.072,2.493-6.549,2.493-10.242c0-12.378-10.033-22.411-22.411-22.411
	c-12.378,0-22.411,10.033-22.411,22.411c0,9.294,5.658,17.265,13.715,20.659c-5.291,5.818-8.544,13.522-8.544,22.007
	c0,11.598,6.046,21.764,15.139,27.584c-0.872,2.863-1.348,5.899-1.348,9.049c0,17.137,13.893,31.03,31.03,31.03
	s31.03-13.893,31.03-31.03c0-3.42-0.574-6.701-1.596-9.778C232.486,171.423,239.676,162.14,239.676,151.173z"/>
<path style="fill:#B54324;" d="M272.322,151.173c0-13.567,10.999-24.566,24.566-24.566c2.796,0,5.472,0.49,7.975,1.35
	c5.141-6.77,12.84-11.466,21.669-12.655c-1.583-3.072-2.493-6.549-2.493-10.242c0-12.378,10.033-22.411,22.411-22.411
	s22.411,10.033,22.411,22.411c0,9.294-5.658,17.265-13.715,20.659c5.291,5.818,8.544,13.522,8.544,22.007
	c0,11.598-6.046,21.764-15.139,27.584c0.872,2.863,1.348,5.899,1.348,9.049c0,17.137-13.893,31.03-31.03,31.03
	c-17.137,0-31.03-13.893-31.03-31.03c0-3.42,0.574-6.701,1.596-9.778C279.512,171.423,272.322,162.14,272.322,151.173z"/>
<ellipse style="fill:#D0D1D3;" cx="183.613" cy="251.104" rx="24.376" ry="27.789"/>
<ellipse style="fill:#A6A8AA;" cx="328.387" cy="251.104" rx="24.376" ry="27.789"/>
<path style="fill:#FFFFFF;" d="M259.079,356.68h-6.156c-42.337,0-76.657-34.321-76.657-76.657v-67.077
	c0-42.337,34.321-76.657,76.657-76.657h6.156c42.337,0,76.657,34.321,76.657,76.657v67.077
	C335.736,322.358,301.415,356.68,259.079,356.68z"/>
<path style="fill:#D0D1D3;" d="M259.079,136.287h-3.653V356.68h3.653c42.337,0,76.657-34.321,76.657-76.659v-67.077
	C335.736,170.606,301.415,136.287,259.079,136.287z"/>
<circle style="fill:#59595B;" cx="223.073" cy="258.207" r="8.561"/>
<circle style="fill:#272525;" cx="288.927" cy="258.207" r="8.561"/>
<circle style="fill:#FF5419;" cx="256" cy="289.53" r="22.756"/>
<g>
	<path style="fill:#C92F00;" d="M256,266.769c-0.195,0-0.383,0.024-0.576,0.029v45.454c0.193,0.005,0.381,0.029,0.576,0.029
		c12.567,0,22.756-10.188,22.756-22.756S268.569,266.769,256,266.769z"/>
	<path style="fill:#C92F00;" d="M256,339.365c-6.97,0-12.641-5.672-12.641-12.641c0-1.903,1.545-3.448,3.448-3.448
		s3.448,1.545,3.448,3.448c0,3.169,2.577,5.746,5.746,5.746c3.169,0,5.746-2.577,5.746-5.746c0-1.903,1.545-3.448,3.448-3.448
		s3.448,1.545,3.448,3.448C268.641,333.693,262.968,339.365,256,339.365z"/>
</g>
<path style="fill:#930000;" d="M265.194,323.275c-1.903,0-3.448,1.545-3.448,3.448c0,3.169-2.577,5.746-5.746,5.746
	c-0.197,0-0.383-0.038-0.574-0.059v6.925c0.191,0.009,0.381,0.029,0.574,0.029c6.97,0,12.641-5.672,12.641-12.641
	C268.641,324.82,267.097,323.275,265.194,323.275z"/>
<path style="fill:#EAA22F;" d="M211.492,417.473l35.121-14.048v-37.543l-35.121-14.048c-5.656-2.262-11.809,1.903-11.809,7.995
	v49.65C199.683,415.57,205.836,419.735,211.492,417.473z"/>
<path style="fill:#E09112;" d="M300.506,417.473l-35.121-14.048v-37.543l35.121-14.048c5.656-2.262,11.809,1.903,11.809,7.995v49.65
	C312.315,415.57,306.162,419.735,300.506,417.473z"/>
<path style="fill:#FFC61B;" d="M271.808,404.189c-10.54,2.486-21.078,2.486-31.618,0c-1.843-0.434-3.293-1.884-3.727-3.727
	c-2.486-10.54-2.486-21.078,0-31.618c0.434-1.843,1.884-3.293,3.727-3.727c10.54-2.486,21.078-2.486,31.618,0
	c1.843,0.434,3.293,1.884,3.727,3.727c2.486,10.54,2.486,21.078,0,31.618C275.101,402.304,273.651,403.754,271.808,404.189z"/>
<path style="fill:#EAA22F;" d="M275.535,368.843c-0.434-1.843-1.884-3.293-3.727-3.727c-5.079-1.198-10.156-1.803-15.234-1.846
	v42.765c5.079-0.043,10.156-0.65,15.234-1.848c1.843-0.434,3.293-1.884,3.727-3.727
	C278.019,389.923,278.019,379.383,275.535,368.843z"/>
<g>
	<circle style="fill:#FF5419;" cx="210.61" cy="371.295" r="8.011"/>
	<circle style="fill:#FF5419;" cx="301.39" cy="403.342" r="8.011"/>
	<circle style="fill:#FF5419;" cx="221.281" cy="392.671" r="4.855"/>
	<circle style="fill:#FF5419;" cx="287.065" cy="385.293" r="4.855"/>
	<circle style="fill:#FF5419;" cx="302.287" cy="367.175" r="3.56"/>
	<circle style="fill:#FF5419;" cx="271.532" cy="378.828" r="4.855"/>
	<path style="fill:#FF5419;" d="M241.407,388.915c-2.453,0-4.703,0.852-6.484,2.267c0.302,3.093,0.81,6.187,1.539,9.28
		c0.434,1.843,1.884,3.293,3.727,3.727c3.151,0.743,6.303,1.258,9.454,1.558c1.374-1.767,2.2-3.982,2.2-6.394
		C251.845,393.587,247.172,388.915,241.407,388.915z"/>
</g>
<g>
</g>
<g>
</g>
<g>
</g>
<g>
</g>
<g>
</g>
<g>
</g>
<g>
</g>
<g>
</g>
<g>
</g>
<g>
</g>
<g>
</g>
<g>
</g>
<g>
</g>
<g>
</g>
<g>
</g>
</svg>
