<!-- icon666.com - MILLIONS vector ICONS FREE --><svg enable-background="new 0 0 24 24" viewBox="0 0 24 24" xmlns="http://www.w3.org/2000/svg"><g id="line" style="display:none;fill:none;stroke:#000;stroke-linecap:round;stroke-linejoin:round;stroke-miterlimit:10"><path d="m23.3 12.6c-7.5 9.2-15 9.2-22.6 0-.3-.4-.3-.9 0-1.3 7.5-9.2 15-9.2 22.6 0 .3.4.3 1 0 1.3z" display="inline"></path><circle cx="12" cy="12" display="inline" r="5.5"></circle><circle cx="12" cy="12" display="inline" r="2.5"></circle></g><g id="line_expanded" display="none"><g display="inline"><path d="m23.7 11c-7.7-9.3-15.7-9.3-23.4 0-.5.6-.5 1.3 0 1.9 3.9 4.7 7.8 7.1 11.7 7.1s7.8-2.4 11.7-7.1c.4-.5.4-1.3 0-1.9zm-.8 1.3c-3.7 4.4-7.3 6.7-10.9 6.7s-7.2-2.3-10.9-6.7c-.1-.2-.1-.5 0-.6 3.7-4.5 7.3-6.7 10.9-6.7s7.2 2.3 10.9 6.7c.1.1.1.4 0 .6z" fill="#000000" style="fill: rgb(0, 0, 0);"></path><path d="m12 6c-3.3 0-6 2.7-6 6s2.7 6 6 6 6-2.7 6-6-2.7-6-6-6zm0 11c-2.8 0-5-2.2-5-5s2.2-5 5-5 5 2.2 5 5-2.2 5-5 5z" fill="#000000" style="fill: rgb(0, 0, 0);"></path><path d="m12 9c-1.7 0-3 1.3-3 3s1.3 3 3 3 3-1.3 3-3-1.3-3-3-3zm0 5c-1.1 0-2-.9-2-2s.9-2 2-2 2 .9 2 2-.9 2-2 2z" fill="#000000" style="fill: rgb(0, 0, 0);"></path></g></g><g id="colored_line" display="none"><g display="inline"><path d="m23.7 11c-7.7-9.3-15.7-9.3-23.4 0-.5.6-.5 1.3 0 1.9 3.9 4.7 7.8 7.1 11.7 7.1s7.8-2.4 11.7-7.1c.4-.5.4-1.3 0-1.9zm-.8 1.3c-3.7 4.4-7.3 6.7-10.9 6.7s-7.2-2.3-10.9-6.7c-.1-.2-.1-.5 0-.6 3.7-4.5 7.3-6.7 10.9-6.7s7.2 2.3 10.9 6.7c.1.1.1.4 0 .6z" fill="#1689fc" style="fill: rgb(231, 13, 101);"></path><path d="m12 6c-3.3 0-6 2.7-6 6s2.7 6 6 6 6-2.7 6-6-2.7-6-6-6zm0 11c-2.8 0-5-2.2-5-5s2.2-5 5-5 5 2.2 5 5-2.2 5-5 5z" fill="#3e5959" style="fill: rgb(0, 0, 0);"></path><path d="m12 9c-1.7 0-3 1.3-3 3s1.3 3 3 3 3-1.3 3-3-1.3-3-3-3zm0 5c-1.1 0-2-.9-2-2s.9-2 2-2 2 .9 2 2-.9 2-2 2z" fill="#1689fc" style="fill: rgb(231, 13, 101);"></path></g></g><g id="filled_line"><g><path d="m23.3 12.6c-7.5 9.2-15 9.2-22.6 0-.3-.4-.3-.9 0-1.3 7.5-9.2 15-9.2 22.6 0 .3.4.3 1 0 1.3z" fill="#b7e0f6"></path><circle cx="12" cy="12" fill="#cfd3d4" r="5.5" style="fill: rgb(163, 20, 240);"></circle><circle cx="12" cy="12" fill="#1689fc" r="2.5" style="fill: rgb(231, 13, 101);"></circle><path d="m23.3 11.4c-5.8-7-11.6-8.6-17.3-4.9 5.3-3.1 10.6-1.3 16 5.5-5.4 6.8-10.7 8.6-16.1 5.5 5.8 3.8 11.6 2.2 17.3-4.9.4-.3.4-.9.1-1.2z" fill="#81c8ee"></path><g fill="#384949"><path d="m23.7 11c-7.7-9.3-15.7-9.3-23.4 0-.5.6-.5 1.3 0 1.9 3.9 4.7 7.8 7.1 11.7 7.1s7.8-2.4 11.7-7.1c.4-.5.4-1.3 0-1.9zm-.8 1.3c-3.7 4.4-7.3 6.7-10.9 6.7s-7.2-2.3-10.9-6.7c-.1-.2-.1-.5 0-.6 3.7-4.5 7.3-6.7 10.9-6.7s7.2 2.3 10.9 6.7c.1.1.1.4 0 .6z" fill="#384949" style="fill: rgb(0, 0, 0);"></path><path d="m12 6c-3.3 0-6 2.7-6 6s2.7 6 6 6 6-2.7 6-6-2.7-6-6-6zm0 11c-2.8 0-5-2.2-5-5s2.2-5 5-5 5 2.2 5 5-2.2 5-5 5z" fill="#384949" style="fill: rgb(0, 0, 0);"></path><path d="m12 9c-1.7 0-3 1.3-3 3s1.3 3 3 3 3-1.3 3-3-1.3-3-3-3zm0 5c-1.1 0-2-.9-2-2s.9-2 2-2 2 .9 2 2-.9 2-2 2z" fill="#384949" style="fill: rgb(0, 0, 0);"></path></g></g></g><g id="duo_tone_1_" display="none"><path d="m12 6.5c-3 0-5.5 2.5-5.5 5.5s2.5 5.5 5.5 5.5 5.5-2.5 5.5-5.5-2.5-5.5-5.5-5.5zm0 8c-1.4 0-2.5-1.1-2.5-2.5s1.1-2.5 2.5-2.5 2.5 1.1 2.5 2.5-1.1 2.5-2.5 2.5z" display="inline" fill="#00ecce"></path><g display="inline" fill="#01a28e"><path d="m23.7 11c-7.7-9.3-15.7-9.3-23.4 0-.5.6-.5 1.3 0 1.9 3.9 4.7 7.8 7.1 11.7 7.1s7.8-2.4 11.7-7.1c.4-.5.4-1.3 0-1.9zm-.8 1.3c-3.7 4.4-7.3 6.7-10.9 6.7s-7.2-2.3-10.9-6.7c-.1-.2-.1-.5 0-.6 3.7-4.5 7.3-6.7 10.9-6.7s7.2 2.3 10.9 6.7c.1.1.1.4 0 .6z" fill="#01a28e" style="fill: rgb(0, 0, 0);"></path><path d="m12 6c-3.3 0-6 2.7-6 6s2.7 6 6 6 6-2.7 6-6-2.7-6-6-6zm0 11c-2.8 0-5-2.2-5-5s2.2-5 5-5 5 2.2 5 5-2.2 5-5 5z" fill="#01a28e" style="fill: rgb(0, 0, 0);"></path><path d="m12 9c-1.7 0-3 1.3-3 3s1.3 3 3 3 3-1.3 3-3-1.3-3-3-3zm0 5c-1.1 0-2-.9-2-2s.9-2 2-2 2 .9 2 2-.9 2-2 2z" fill="#01a28e" style="fill: rgb(0, 0, 0);"></path></g></g><g id="flat" display="none"><g display="inline"><path d="m0 12c0 .3.1.7.3.9 3.9 4.7 7.8 7.1 11.7 7.1s7.8-2.4 11.7-7.1c.2-.3.3-.6.3-.9z" fill="#b7e0f6"></path><path d="m12 18c3.3 0 6-2.7 6-6h-12c0 3.3 2.7 6 6 6z" fill="#cfd3d4" style="fill: rgb(163, 20, 240);"></path><path d="m12 15c1.7 0 3-1.3 3-3h-6c0 1.7 1.3 3 3 3z" fill="#1689fc" style="fill: rgb(231, 13, 101);"></path><path d="m24 12c0-.3-.1-.7-.3-1-7.7-9.3-15.7-9.3-23.4 0-.2.3-.3.7-.3 1z" fill="#cae8f9"></path><path d="m12 6c-3.3 0-6 2.7-6 6h12c0-3.3-2.7-6-6-6z" fill="#f0f0f0" style="fill: rgb(0, 0, 0);"></path><path d="m12 9c-1.7 0-3 1.3-3 3h6c0-1.7-1.3-3-3-3z" fill="#18a7fc"></path></g></g></svg>