<!-- icon666.com - MILLIONS vector ICONS FREE --><svg xmlns="http://www.w3.org/2000/svg" xmlns:xlink="http://www.w3.org/1999/xlink" version="1.1" id="Layer_1" x="0px" y="0px" viewBox="0 0 512.079 512.079" style="enable-background:new 0 0 512.079 512.079;" xml:space="preserve"><g><ellipse style="" cx="256.04" cy="256.039" rx="248.5" ry="248.539" fill="#F36986"></ellipse><path style="" d="M341.974,22.769c66.13,44.66,109.612,120.314,109.612,206.126 c0,137.264-111.257,248.539-248.5,248.539c-30.208,0-59.154-5.396-85.935-15.268c39.651,26.778,87.444,42.413,138.888,42.413 c137.243,0,248.5-111.275,248.5-248.539C504.54,148.988,436.866,57.749,341.974,22.769z" fill="#F33759"></path><path style="fill: rgb(255, 255, 255);" d="M368.428,178.772l-0.172-0.172c-28.415-28.537-74.608-28.54-103.027-0.008l-8.548,8.582c0,0,0,0,0,0 l-9.038-9.074c-28.468-28.581-74.739-28.581-103.206,0l0,0c-28.532,28.646-28.532,74.973,0,103.619l98.956,99.352 c7.33,7.36,19.245,7.36,26.576,0l98.459-98.853C396.88,253.653,396.88,207.338,368.428,178.772z" fill="#FFD2E3"></path><g><path style="fill: rgb(255, 255, 255);" d="M368.428,178.772l-0.172-0.172c-15.678-15.746-36.768-22.785-57.299-21.157 c26.582,28.685,25.98,73.574-1.839,101.504l-93.681,94.056l27.957,28.068c7.33,7.36,19.245,7.36,26.576,0l98.459-98.853 C396.88,253.653,396.88,207.338,368.428,178.772z" fill="#FFBBD7"></path></g></g><g><path d="M219.928,494.392c-56.461-8.482-108.288-37.033-145.932-80.393C35.978,370.208,15.04,314.11,15.04,256.04 c0-38.854,9.458-77.459,27.351-111.641c1.921-3.67,0.503-8.202-3.166-10.123c-3.671-1.922-8.203-0.504-10.123,3.166 C10.089,173.761,0.04,214.772,0.04,256.04c0,61.684,22.242,121.274,62.629,167.793c39.983,46.054,95.041,76.38,155.03,85.393 c0.378,0.057,0.753,0.084,1.124,0.084c3.649,0,6.849-2.668,7.407-6.387C226.846,498.827,224.024,495.007,219.928,494.392z" fill="#000000"></path><path d="M437.059,74.993C388.707,26.633,324.42,0,256.04,0C214.8,0,175.425,9.509,139.008,28.263 c-34.735,17.888-65.424,43.976-88.75,75.444c-2.466,3.328-1.769,8.024,1.559,10.491c3.327,2.466,8.025,1.769,10.492-1.559 c21.965-29.633,50.861-54.199,83.566-71.041C180.148,23.949,217.212,15,256.04,15c64.373,0,124.894,25.072,170.412,70.598 c45.52,45.527,70.588,106.057,70.588,170.441s-25.068,124.915-70.588,170.441c-45.519,45.526-106.039,70.598-170.412,70.598 c-4.142,0-7.5,3.358-7.5,7.5s3.358,7.5,7.5,7.5c68.38,0,132.667-26.633,181.02-74.993c48.352-48.359,74.98-112.656,74.98-181.047 S485.411,123.352,437.059,74.993z" fill="#000000"></path><path d="M267.303,394.376l50.308-50.509c2.923-2.935,2.914-7.683-0.021-10.606c-2.935-2.923-7.684-2.914-10.606,0.021 l-50.297,50.507L149.751,276.427c-25.547-25.649-25.547-67.384,0-93.034c12.366-12.415,28.805-19.253,46.289-19.253 s33.923,6.838,46.289,19.253l9.038,9.074c1.408,1.413,3.32,2.207,5.314,2.207s3.907-0.794,5.314-2.208l8.548-8.582 c12.341-12.391,28.746-19.214,46.196-19.214c0.001,0,0.004,0,0.005,0c17.451,0.001,33.857,6.827,46.194,19.217l0.176,0.177 c25.5,25.602,25.5,67.26,0,92.862l-32.607,32.737c-2.923,2.935-2.914,7.684,0.021,10.607c2.935,2.922,7.684,2.913,10.607-0.021 l32.607-32.737c31.313-31.439,31.313-82.594,0.004-114.028l-0.175-0.176c-15.176-15.241-35.357-23.635-56.826-23.637 c-0.003,0-0.003,0-0.006,0c-21.466,0-41.647,8.392-56.824,23.629l-3.234,3.247l-3.724-3.738 c-15.202-15.263-35.415-23.668-56.917-23.668s-41.715,8.405-56.917,23.667c-31.361,31.486-31.361,82.718,0,114.204l106.935,107.363 c2.836,2.848,6.609,4.417,10.624,4.417C260.695,398.791,264.467,397.223,267.303,394.376z" fill="#000000"></path></g></svg>