<svg id="Capa_1" enable-background="new 0 0 512.778 512.778" viewBox="0 0 512.778 512.778" xmlns="http://www.w3.org/2000/svg"><g><g><g id="XMLID_1121_"><g><path d="m439.949 396.654c32.01 25.98 36.9 72.99 10.93 105l-2.94 3.62h-77.9l-5.32-5.39c-7.07-7.17-10.91-16.76-10.91-26.59 0-3.06.37-6.13 1.13-9.17l-16.712 37.355c-1.033 2.309-3.326 3.795-5.856 3.795h-151.964c-2.53 0-4.823-1.486-5.856-3.795l-16.712-37.355c3.2 12.81-.51 26.36-9.78 35.76l-5.32 5.39h-77.9l-2.94-3.62c-25.97-32.01-21.08-79.02 10.93-105l9.07-7.36 83.34-41h199.05l66.59 41z" fill="#91deb6" style="fill: rgb(232, 23, 96);"></path></g></g><g><path d="m138.841 408.031 9.07-7.36 83.34-41h151.516l-18.478-11.377h-199.05l-83.34 41-9.07 7.36c-32.01 25.98-36.9 72.99-10.93 105l2.94 3.62h57.578c-19.526-31.469-13.089-73.29 16.424-97.243z" fill="#6ed5a1" style="fill: rgb(94, 28, 31);"></path></g><g><g id="XMLID_1120_"><g><g fill="#fee45a"><path d="m396.639 382.154 9.16 11.89-26.34 33.64c-.9 1.14-2.31 1.76-3.76 1.63l-28.16-2.52-7.56-19.32-48.26-104.25h14.26z" fill="#fee45a" style="fill: rgb(125, 21, 162);"></path><path d="m233.869 448.374c-.82-.48-1.75-.68-2.68-.57l-.23-2.23 2.51-18.78 12.78-122.82v-.75h20.28l12.78 123.57 2.51 18.78-.72 2.2c-.77 0-1.52.21-2.19.6l-20.33 12.06c-1.35.8-3.03.8-4.38 0z" fill="#fee45a" style="fill: rgb(125, 21, 162);"></path><path d="m232.379 303.224-59.58 104.25-7.56 19.32-28.16 2.52c-1.45.13-2.86-.49-3.76-1.63l-26.34-33.64 9.16-11.89 90.66-78.93z" fill="#fee45a" style="fill: rgb(125, 21, 162);"></path></g><path d="m436.149 359.799c1.631.738 2.473 2.56 1.979 4.28l-7.249 25.215c-.53 1.84-2.21 3.11-4.12 3.11h-17.58c-1.32 0-2.57.6-3.38 1.64l-9.16-11.89-90.66-78.93h4.88l26.72 11.99z" fill="#fedf30" style="fill: rgb(190, 53, 227);"></path><path d="m339.979 407.474 7.56 19.32c-1.23-.11-2.44.31-3.33 1.15l-27.63 26.09c-1.05.99-2.53 1.38-3.93 1.05l-30.57-7.19c-.33-.08-.66-.12-.98-.12l.72-2.2-2.51-18.78-12.78-123.57h25.19z" fill="#fedf30" style="fill: rgb(190, 53, 227);"></path><path d="m246.249 303.224v.75l-12.78 122.82-2.51 18.78.23 2.23c-.16.02-.32.05-.49.09l-30.57 7.19c-1.4.33-2.88-.06-3.93-1.05l-27.63-26.09c-.89-.84-2.1-1.26-3.33-1.15l7.56-19.32 59.58-104.25z" fill="#fedf30" style="fill: rgb(190, 53, 227);"></path><path d="m206.799 303.224-90.66 78.93-9.16 11.89c-.81-1.04-2.06-1.64-3.38-1.64h-17.58c-1.91 0-3.59-1.27-4.12-3.11l-7.205-25.062c-.52-1.808.366-3.723 2.079-4.498l98.425-44.52z" fill="#fed402" style="fill: rgb(200, 20, 194);"></path></g></g></g><g><g id="XMLID_1119_"><g><path d="m427.437 179.224c1.255 0 2.14 1.23 1.742 2.42-8.81 26.29-25.43 49.28-47.64 65.89l-4.06 3.03-76.1 47.09h-65.83l-100.25-47.09-4.06-3.03c-22.21-16.61-38.83-39.6-47.64-65.89-.398-1.19.487-2.42 1.742-2.42h13.768c-4.1-17.6-3.75-38.1-.38-60.57.21-1.42 1.45-2.48 2.89-2.48h16.29c6.46-12.46 15.38-23.28 26.07-31.91s23.15-15.07 36.68-18.77l.96-.26h149.54l.96.26c27.07 7.4 49.82 25.77 62.75 50.68h16.29c1.44 0 2.68 1.06 2.89 2.48 3.37 22.47 3.72 42.97-.38 60.57z" fill="#91deb6" style="fill: rgb(232, 23, 96);"></path></g></g></g><path d="m277.231 65.234h-95.612l-.96.26c-13.53 3.7-25.99 10.14-36.68 18.77s-19.61 19.45-26.07 31.91h-16.29c-1.44 0-2.68 1.06-2.89 2.48-3.37 22.47-3.72 42.97.38 60.57h-13.768c-1.255 0-2.14 1.23-1.742 2.42 8.81 26.29 25.43 49.28 47.64 65.89l4.06 3.03 3.979 1.869c-8.76-11.645-15.667-24.67-20.349-38.642l-.81-2.42h4.112c6.14 0 10.948-5.352 10.202-11.446-1.815-14.838-1.038-31.366 1.625-49.124.21-1.42 1.45-2.48 2.89-2.48h5.521c6.407 0 12.322-3.297 15.824-8.662 5.779-8.855 12.885-16.685 21.015-23.248 10.69-8.63 23.15-15.07 36.68-18.77l.96-.26h60.282v-32.147z" fill="#6ed5a1" style="fill: rgb(94, 28, 31);"></path><path d="m343.279 281.993 11.191-4.354c11.743-4.568 20.393-14.745 23.01-27.071 2.748-12.945-5.281-25.733-18.135-28.882l-9.648-2.363-42.432-5.732v75.464z" fill="#a79ba7" style="fill: rgb(0, 0, 0);"></path><g><path d="m169.5 281.993-11.191-4.354c-11.743-4.568-20.393-14.745-23.01-27.071-2.748-12.945 5.281-25.733 18.135-28.882l9.648-2.363 46.974-1.539v79.869z" fill="#a79ba7" style="fill: rgb(0, 0, 0);"></path><path d="m306.447 129.446 12.599-20.789c17.264-28.487 9.163-65.754-18.721-83.977-1.804-1.179-3.401-2.09-4.679-2.763-1.875-.988-4.165-.682-5.733.744l-7.79 7.082c-17.305-21.518-38.354-22.244-38.354-22.244 0 13.005-8.894 29.486-19.764 36.625l-7.907 5.193c-2.154 1.415-4.996 1.179-6.887-.572l-6.094-5.643c-1.827-1.692-4.72-1.36-6.133.689-7.991 11.583-28.172 48.215 4.689 85.655l38.559 49.17h37.944z" fill="#46cc8d" style="fill: rgb(52, 215, 20);"></path><path d="m247.251 161.074c-29.414-33.512-16.33-66.378-7.53-81.211 2.651-4.469 8.751-5.341 12.563-1.811l2.506 2.32c1.891 1.751 4.733 1.987 6.887.572l7.907-5.193c8.63-5.667 16.014-17.222 18.691-28.252 1.199-4.941 6.294-7.845 11.123-6.258 7.136 2.346 17.055 7.28 26.212 17.638-3.955-13.602-12.561-25.887-25.284-34.202-1.804-1.179-3.401-2.09-4.679-2.763-1.875-.988-4.165-.682-5.733.743l-7.79 7.082c-17.306-21.514-38.355-22.24-38.355-22.24 0 13.005-8.894 29.486-19.765 36.625l-7.907 5.193c-2.154 1.415-4.996 1.179-6.887-.573l-6.094-5.643c-1.827-1.692-4.72-1.36-6.133.689-7.991 11.584-28.172 48.215 4.689 85.655l38.559 49.17h20.776z" fill="#00c27a" style="fill: rgb(35, 166, 17);"></path><g id="XMLID_1115_"><g><path d="m361.229 183.354c0 8.08-1.81 16.21-5.54 23.78l-10.74 21.84c-1.1 2.23-1.67 4.69-1.67 7.18v57.78c0 13.3-6.22 25.83-16.8 33.88l-12.03 9.15-2.17 5.21c-7.54 18.15-23.48 31.47-42.69 35.65l-.77.17c-8.52 1.85-17.34 1.83-25.84-.07-19.09-4.25-34.91-17.52-42.41-35.58l-2.24-5.38-12.03-9.15c-10.58-8.05-16.8-20.58-16.8-33.88v-57.78c0-2.49-.57-4.95-1.67-7.18l-10.74-21.84c-10.08-20.48-6.16-45.1 9.79-61.44 10.36-10.61 24.35-16.25 38.58-16.25 7.37 0 14.8 1.51 21.83 4.63l28.29 12.541c.516.229 1.104.229 1.62 0l28.29-12.541c20.59-9.13 44.68-4.49 60.41 11.62 10.05 10.3 15.33 23.89 15.33 37.66z" fill="#f3f0f3"></path></g></g><g><g><path d="m279.978 342.041-2.24-5.38-12.03-9.15c-10.58-8.05-16.8-20.58-16.8-33.88v-57.78c0-2.49-.57-4.95-1.67-7.18l-10.74-21.84c-10.08-20.48-6.16-45.1 9.79-61.44.667-.684 1.351-1.345 2.048-1.987l-21.047-9.33c-7.03-3.12-14.46-4.63-21.83-4.63-14.23 0-28.22 5.64-38.58 16.25-15.95 16.34-19.87 40.96-9.79 61.44l10.74 21.84c1.1 2.23 1.67 4.69 1.67 7.18v57.78c0 13.3 6.22 25.83 16.8 33.88l12.03 9.15 2.24 5.38c7.5 18.06 23.32 31.33 42.41 35.58 8.5 1.9 17.32 1.92 25.84.07l.77-.17c10.005-2.177 19.13-6.839 26.636-13.366-6.978-6.024-12.609-13.656-16.247-22.417z" fill="#e2dee2" style="fill: rgb(91, 87, 91);"></path></g></g><g id="XMLID_1118_"><g fill="#a79ba7"><path d="m310.859 219.574v15.86c0 8.41-6.82 15.22-15.23 15.22-4.2 0-8.01-1.7-10.77-4.46-2.75-2.75-4.46-6.56-4.46-10.76v-6.61l29.8-11.04z" fill="#a79ba7" style="fill: rgb(0, 0, 0);"></path><path d="m232.379 228.824v6.61c0 4.2-1.71 8.01-4.46 10.76-2.76 2.76-6.57 4.46-10.77 4.46-8.41 0-15.23-6.81-15.23-15.22v-15.86l.66-1.79z" fill="#a79ba7" style="fill: rgb(0, 0, 0);"></path></g></g><g id="XMLID_1117_"><g><path d="m289.759 324.184-20.82 19.05c-7.39 6.75-18.71 6.75-26.1 0l-20.82-19.05z" fill="#fd4755" style="fill: rgb(240, 20, 38);"></path></g></g><path d="m259.207 297.653h-5.636c-7.368 0-13.34-5.973-13.34-13.34 0-7.368 5.973-13.34 13.34-13.34h5.636c7.368 0 13.34 5.973 13.34 13.34 0 7.367-5.972 13.34-13.34 13.34z" fill="#fd4755" style="fill: rgb(240, 20, 38);"></path><circle cx="256.389" cy="481.169" fill="#f3f0f3" r="19.743"></circle></g></g><g><path d="m217.555 296.476v-38.328c11.269-.198 20.561-8.636 22.095-19.535 2.695-.331 5.119-2.105 6.127-4.827 1.439-3.884-.543-8.2-4.427-9.638l-23.795-8.815v-20.52c0-4.142-3.358-7.5-7.5-7.5s-7.5 3.358-7.5 7.5v14.963l-2.068-.766c-3.885-1.438-8.199.543-9.638 4.427-1.329 3.587.264 7.537 3.575 9.254v12.74c0 6.979 3.165 13.231 8.132 17.404v43.642c0 4.142 3.358 7.5 7.5 7.5s7.499-3.359 7.499-7.501zm-.405-53.318c-4.261 0-7.727-3.466-7.727-7.728v-7.115l15.454 5.725v1.39c0 4.262-3.466 7.728-7.727 7.728z" fill="#000000" style="fill: rgb(0, 0, 0);"></path><path d="m198.706 177.491c8.182-5.068 16.348-5.009 25.702.182 1.153.64 2.401.943 3.632.943 2.637 0 5.195-1.394 6.565-3.862 2.01-3.622.703-8.187-2.919-10.197-14.204-7.882-27.957-7.82-40.877.182-3.521 2.181-4.608 6.804-2.428 10.325s6.802 4.606 10.325 2.427z" fill="#000000" style="fill: rgb(0, 0, 0);"></path><path d="m312.292 209.009-2.068.766v-14.963c0-4.142-3.358-7.5-7.5-7.5s-7.5 3.358-7.5 7.5v20.52l-23.795 8.815c-3.884 1.438-5.866 5.754-4.427 9.638 1.008 2.722 3.432 4.497 6.127 4.827 1.534 10.9 10.826 19.337 22.095 19.535v38.328c0 4.142 3.358 7.5 7.5 7.5s7.5-3.358 7.5-7.5v-43.642c4.967-4.172 8.132-10.424 8.132-17.404v-12.74c3.311-1.717 4.904-5.667 3.575-9.254-1.44-3.882-5.756-5.866-9.639-4.426zm-24.391 26.422v-1.39l15.454-5.725v7.115c0 4.261-3.466 7.728-7.727 7.728s-7.727-3.467-7.727-7.728z" fill="#000000" style="fill: rgb(0, 0, 0);"></path><path d="m321.97 164.738c-12.921-8.002-26.675-8.064-40.877-.181-3.622 2.01-4.929 6.575-2.918 10.197 1.37 2.469 3.928 3.862 6.564 3.862 1.231 0 2.479-.304 3.632-.944 9.354-5.19 17.52-5.248 25.701-.181 3.522 2.182 8.145 1.094 10.325-2.428 2.182-3.521 1.095-8.143-2.427-10.325z" fill="#000000" style="fill: rgb(0, 0, 0);"></path><path d="m295.476 316.689h-78.326c-4.142 0-7.5 3.358-7.5 7.5s3.358 7.5 7.5 7.5h1.957l18.67 17.075c5.163 4.721 11.637 7.082 18.112 7.082s12.949-2.361 18.112-7.082l18.67-17.075h2.804c4.142 0 7.5-3.358 7.5-7.5s-3.357-7.5-7.499-7.5zm-31.598 21.005c-4.554 4.166-11.423 4.165-15.978 0l-6.567-6.006h29.111z" fill="#000000" style="fill: rgb(0, 0, 0);"></path><path d="m232.731 284.313c0 11.491 9.349 20.84 20.84 20.84h5.637c11.491 0 20.84-9.349 20.84-20.84s-9.349-20.84-20.84-20.84h-5.637c-11.491 0-20.84 9.348-20.84 20.84zm20.84-5.84h5.637c3.22 0 5.84 2.62 5.84 5.84s-2.62 5.84-5.84 5.84h-5.637c-3.22 0-5.84-2.62-5.84-5.84s2.62-5.84 5.84-5.84z" fill="#000000" style="fill: rgb(0, 0, 0);"></path><path d="m164.682 461.063c-1.588-3.547-5.622-5.293-9.296-4.024-3.674 1.271-5.768 5.137-4.825 8.907 2.55 10.201-.455 21.187-7.841 28.67l-5.322 5.392c-2.91 2.948-2.879 7.696.069 10.606s7.696 2.879 10.606-.069l5.322-5.392c3.713-3.762 6.685-8.115 8.849-12.817l7.163 16.004c1.247 2.786 3.983 4.438 6.85 4.438 1.024 0 2.064-.211 3.06-.656 3.781-1.692 5.474-6.128 3.782-9.91z" fill="#000000" style="fill: rgb(0, 0, 0);"></path><path d="m444.674 390.83-5.215-4.233 6.736-23.445c1.028-3.579-.725-7.37-4.118-8.905l-94.525-42.756c2.095-5.567 3.226-11.512 3.226-17.56v-6.809l6.411-2.494c13.231-5.146 23.118-16.109 26.922-29.655l1.92-1.436c23.539-17.605 40.917-41.642 50.258-69.512l.81-2.417c.767-2.288.386-4.805-1.023-6.763-1.41-1.958-3.675-3.12-6.088-3.12h-7.275c2.297-15.512 1.88-33.347-1.247-54.182-.759-5.055-5.189-8.867-10.306-8.867h-11.844c-14.167-24.646-37.702-42.9-65.22-50.417l-.964-.264c-.006-.001-.012-.002-.017-.004-.502-1.84-1.054-3.672-1.711-5.484-1.41-3.895-5.711-5.908-9.606-4.497s-5.908 5.711-4.497 9.606c5.684 15.69 3.982 32.876-4.669 47.152l-10.561 17.426c-6.675.566-13.31 2.222-19.627 5.023l-26.056 11.554-26.055-11.554c-8.055-3.572-16.626-5.275-25.129-5.225-23.663-29.201-12.484-57.119-4.204-70.629l3.114 2.884c4.432 4.103 11.053 4.653 16.099 1.338l7.907-5.192c10.59-6.954 19.308-20.776 22.16-34.063 6.557 1.937 16.785 6.656 26 18.112 1.296 1.611 3.2 2.616 5.261 2.777 2.059.158 4.098-.537 5.628-1.928l6.496-5.905c.846.487 1.702 1.013 2.558 1.572 1.651 1.079 3.254 2.266 4.898 3.627 3.191 2.64 7.918 2.196 10.56-.995 2.641-3.191 2.196-7.918-.995-10.56-2.054-1.7-4.16-3.258-6.258-4.629-1.763-1.152-3.542-2.202-5.285-3.12-4.644-2.447-10.38-1.712-14.274 1.829l-2.198 1.998c-18.034-18.173-37.734-19.073-38.644-19.104-2.019-.066-4.006.688-5.469 2.102s-2.289 3.36-2.289 5.394c0 10.44-7.655 24.625-16.381 30.356l-6.669 4.379-5.007-4.636c-2.464-2.283-5.793-3.378-9.129-3.011-3.345.369-6.36 2.171-8.273 4.944-2.464 3.572-6.365 9.923-9.545 18.21-.537.026-1.079.106-1.619.254l-.962.263c-27.52 7.517-51.055 25.771-65.222 50.417h-11.844c-5.117 0-9.547 3.812-10.306 8.867-3.127 20.836-3.544 38.671-1.247 54.183h-7.275c-2.413 0-4.678 1.161-6.088 3.12-1.409 1.958-1.79 4.476-1.023 6.763l.81 2.418c9.34 27.87 26.719 51.906 50.258 69.512l1.92 1.436c3.804 13.545 13.692 24.508 26.922 29.655l6.411 2.494v6.809c0 6.048 1.131 11.993 3.226 17.56l-34.313 15.521c-3.774 1.707-5.45 6.15-3.743 9.924 1.253 2.771 3.982 4.411 6.838 4.411 1.033 0 2.084-.215 3.086-.668l35.475-16.046c2.64 3.41 5.711 6.506 9.194 9.155l10.417 7.92 1.458 3.511c8.428 20.289 26.263 35.253 47.706 40.03 4.805 1.071 9.75 1.606 14.695 1.606 4.834 0 9.669-.512 14.372-1.536l.776-.169c21.593-4.702 39.545-19.692 48.022-40.1l1.388-3.342 10.417-7.92c3.483-2.649 6.555-5.744 9.194-9.155l89.779 40.61-5.647 19.655h-15.163c-.308 0-.61.028-.913.052l-5.681-7.377c-2.527-3.281-7.236-3.893-10.519-1.366-3.282 2.527-3.893 7.237-1.366 10.519l5.606 7.28-21.677 27.678-21.797-1.951-5.862-14.994c-1.509-3.858-5.859-5.763-9.716-4.254-3.858 1.508-5.762 5.858-4.254 9.716l5.143 13.156-25.456 24.033-23.804-5.603-2.134-15.99c-.548-4.105-4.316-6.988-8.426-6.442-4.105.548-6.99 4.32-6.442 8.426l1.985 14.871-17.474 10.357-17.474-10.357 1.985-14.871c.548-4.106-2.336-7.878-6.442-8.426-4.111-.549-7.878 2.336-8.426 6.442l-2.134 15.99-23.804 5.603-25.456-24.033 5.143-13.156c1.508-3.858-.396-8.208-4.254-9.716-3.858-1.506-8.208.397-9.716 4.254l-5.862 14.994-21.797 1.951-21.677-27.678 5.606-7.28c2.527-3.282 1.916-7.991-1.366-10.519-3.283-2.527-7.991-1.917-10.519 1.366l-5.681 7.377c-.303-.023-.606-.052-.913-.052h-15.165l-5.647-19.657 24.651-11.151c3.774-1.707 5.449-6.15 3.742-9.924-1.708-3.774-6.152-5.452-9.924-3.743l-30.559 13.823c-3.393 1.535-5.146 5.326-4.118 8.905l6.736 23.445-5.215 4.232c-35.168 28.542-40.563 80.378-12.026 115.551l2.938 3.621c1.482 1.827 3.646 2.774 5.829 2.774 1.66 0 3.332-.548 4.721-1.676 3.217-2.61 3.709-7.333 1.099-10.549l-2.938-3.621c-23.327-28.75-18.917-71.123 9.83-94.454l4.187-3.398c1.339.526 2.782.821 4.276.821h16.017l25.381 32.407c2.474 3.158 6.338 4.829 10.332 4.473l26.722-2.391 26.581 25.095c2.891 2.729 6.927 3.814 10.794 2.903l29.307-6.897 7.898 4.682c-6.046 5.001-9.905 12.557-9.905 20.998 0 15.021 12.221 27.243 27.243 27.243 15.021 0 27.243-12.221 27.243-27.243 0-8.441-3.859-15.997-9.906-20.998l7.898-4.682 29.305 6.898c3.871.912 7.905-.174 10.795-2.903l26.582-25.095 26.723 2.391c3.992.355 7.858-1.315 10.332-4.473l25.381-32.407h16.017c1.494 0 2.937-.295 4.276-.821l4.187 3.398c28.747 23.331 33.157 65.703 9.83 94.454l-2.938 3.621c-2.61 3.216-2.118 7.939 1.099 10.549 1.39 1.127 3.06 1.676 4.721 1.676 2.182 0 4.347-.948 5.829-2.774l2.938-3.621c28.535-35.173 23.14-87.009-12.028-115.552zm-92.923-120.18-.972.378v-34.874c0-1.334.311-2.672.9-3.869l2.087-4.242 3.795.929c8.975 2.198 14.502 11.001 12.583 20.04-2.099 9.885-8.975 17.974-18.393 21.638zm-258.283-83.924h5.644c2.289 0 4.452-1.045 5.875-2.838 1.422-1.793 1.949-4.137 1.429-6.366-3.452-14.797-3.727-32.442-.828-53.846h12.32c2.8 0 5.367-1.56 6.657-4.045 10.984-21.168 29.809-37.334 52.23-45.088-2.172 14.547-.331 31.957 11.585 49.889-10.002 2.886-19.319 8.29-26.87 16.027-18.128 18.573-22.61 46.698-11.153 69.986l1.876 3.813-.582.143c-11.325 2.774-19.726 11.137-22.951 21.473-15.527-13.378-27.542-30.135-35.232-49.148zm67.559 83.924c-9.418-3.664-16.294-11.753-18.393-21.639-1.919-9.039 3.608-17.841 12.583-20.04l3.794-.929 2.087 4.242c.589 1.197.9 2.535.9 3.87v34.874zm160.909 51.197-12.027 9.145c-1.055.802-1.878 1.869-2.387 3.093l-2.165 5.211c-6.595 15.877-20.562 27.54-37.361 31.198l-.776.169c-7.4 1.611-15.22 1.593-22.614-.055-16.684-3.716-30.558-15.358-37.115-31.143l-2.235-5.379c-.509-1.224-1.332-2.291-2.387-3.093l-12.027-9.145c-8.668-6.592-13.842-17.028-13.842-27.916v-57.778c0-3.617-.844-7.245-2.441-10.491l-4.695-9.544c-.005-.011-.011-.021-.016-.032l-6.033-12.262c-8.658-17.598-5.271-38.852 8.429-52.887 13.474-13.805 34.376-17.826 52.01-10.007l29.096 12.902c1.936.858 4.145.858 6.08 0l29.096-12.902c16.563-7.345 36.021-4.326 49.573 7.691 3.1 2.748 7.84 2.461 10.588-.636 2.748-3.1 2.463-7.84-.636-10.588-8.359-7.412-18.416-12.234-28.992-14.291l6.402-10.563c7.079-11.681 10.481-24.893 10.104-38.146 22.605 7.696 41.597 23.932 52.65 45.233 1.29 2.485 3.857 4.045 6.657 4.045h12.32c2.898 21.403 2.624 39.048-.828 53.846-.52 2.229.006 4.573 1.429 6.366s3.586 2.838 5.875 2.838h5.644c-7.689 19.013-19.705 35.77-35.23 49.149-3.226-10.336-11.626-18.699-22.951-21.473l-.582-.143 1.876-3.813c6.38-12.97 7.975-27.849 4.49-41.895-.998-4.021-5.066-6.471-9.085-5.474-4.02.998-6.471 5.065-5.473 9.085 2.634 10.618 1.43 21.863-3.391 31.662l-6.038 12.272c-.003.005-.005.011-.008.017l-4.698 9.549c-1.597 3.246-2.44 6.874-2.44 10.491v57.778c-.003 10.889-5.178 21.325-13.846 27.916zm-65.547 171.564c-6.751 0-12.243-5.492-12.243-12.243s5.492-12.242 12.243-12.242c6.75 0 12.243 5.492 12.243 12.242s-5.492 12.243-12.243 12.243z" fill="#000000" style="fill: rgb(0, 0, 0);"></path><path d="m370.059 494.616c-7.386-7.483-10.391-18.469-7.841-28.67.943-3.771-1.151-7.637-4.825-8.907-3.67-1.269-7.708.477-9.296 4.024l-18.416 41.149c-1.692 3.781.001 8.218 3.782 9.91.996.445 2.036.656 3.06.656 2.866 0 5.604-1.653 6.85-4.438l7.163-16.004c2.164 4.702 5.136 9.055 8.849 12.817l5.322 5.392c2.909 2.949 7.658 2.979 10.606.069s2.979-7.659.069-10.606z" fill="#000000" style="fill: rgb(0, 0, 0);"></path></g></g></svg>