<svg width="22" height="22" viewBox="0 0 22 22" fill="none" xmlns="http://www.w3.org/2000/svg">
<path fill-rule="evenodd" clip-rule="evenodd" d="M12.7927 12.2638C11.3608 13.6957 9.03921 13.6957 7.60729 12.2638C6.17537 10.8318 6.17537 8.51024 7.60729 7.07832C9.03921 5.6464 11.3608 5.6464 12.7927 7.07832C14.2247 8.51024 14.2247 10.8318 12.7927 12.2638ZM13.2331 13.6467C11.2729 15.1461 8.45731 14.9994 6.66448 13.2066C4.71186 11.254 4.71186 8.08813 6.66448 6.13551C8.6171 4.18289 11.7829 4.18289 13.7355 6.13551C15.5283 7.92826 15.6751 10.7437 14.1759 12.7039L17.7426 16.2706L16.7998 17.2134L13.2331 13.6467Z" fill="white"/>
</svg>
