<!-- icon666.com - MILLIONS vector ICONS FREE --><svg enable-background="new 0 0 24 24" viewBox="0 0 24 24" xmlns="http://www.w3.org/2000/svg"><g id="line" style="display:none;fill:none;stroke:#000;stroke-linecap:round;stroke-linejoin:round;stroke-miterlimit:10"><path d="m8.1 5.3c5-2.1 10.1-.1 15.1 6 .3.4.3.9 0 1.3-1.3 1.6-2.6 2.9-3.9 3.9" display="inline"></path><path d="m6.3 6.3c-1.8 1.2-3.7 2.8-5.6 5.1-.3.4-.3.9 0 1.3 5.7 6.9 11.3 8.6 17 5.1" display="inline"></path><path d="m8.1 8.1c-1 1-1.6 2.4-1.6 3.9 0 3 2.5 5.5 5.5 5.5 1.5 0 2.9-.6 3.9-1.6" display="inline"></path><path d="m17 14.2c.3-.7.5-1.4.5-2.2 0-3-2.5-5.5-5.5-5.5-.8 0-1.5.2-2.2.5" display="inline"></path><path d="m10.2 10.2c-.4.5-.7 1.1-.7 1.8 0 1.4 1.1 2.5 2.5 2.5.7 0 1.3-.3 1.8-.7" display="inline"></path><path d="m14.5 11.7c-.1-1.1-1-2-2.1-2.1" display="inline"></path><path d="m.5.5 23 23" display="inline"></path></g><g id="line_expanded" display="none"><g display="inline"><path d="m8.3 5.8c4.8-2 9.7 0 14.6 5.9.1.2.1.5 0 .6-1.3 1.5-2.6 2.8-3.8 3.9-.2.2-.3.5-.1.7.1.1.2.2.4.2.1 0 .2 0 .3-.1 1.3-1.1 2.7-2.4 4-4 .4-.5.4-1.3 0-1.9-5.2-6.4-10.5-8.4-15.8-6.2-.2.1-.3.4-.2.6.1.3.4.4.6.3z" fill="#000000" style="fill: rgb(0, 0, 0);"></path><path d="m16.8 14.7h.2c.2 0 .4-.1.5-.3.3-.8.5-1.6.5-2.4 0-3.3-2.7-6-6-6-.8 0-1.6.2-2.4.5-.3.1-.4.4-.3.7.1.2.4.3.7.2.6-.3 1.3-.4 2-.4 2.8 0 5 2.2 5 5 0 .7-.1 1.4-.4 2-.1.3 0 .6.2.7z" fill="#000000" style="fill: rgb(0, 0, 0);"></path><path d="m11.8 9.5c0 .3.2.5.4.6.9.1 1.6.8 1.7 1.7 0 .3.2.4.5.4h.1c.3 0 .5-.3.4-.6-.2-1.3-1.2-2.4-2.6-2.6-.2 0-.4.2-.5.5z" fill="#000000" style="fill: rgb(0, 0, 0);"></path><path d="m23.9 23.1-23-23c-.2-.1-.6-.1-.8 0s-.1.6 0 .8l5.3 5.3c-1.6 1.2-3.4 2.8-5.1 4.9-.4.5-.4 1.3 0 1.9 3.9 4.6 7.8 7 11.7 7 1.9 0 3.8-.6 5.6-1.6l5.5 5.5c.1.1.2.1.4.1s.3 0 .4-.1c.1-.2.1-.6 0-.8zm-13.6-12.1 2.7 2.7c-.3.2-.6.3-1 .3-1.1 0-2-.9-2-2 0-.4.1-.7.3-1zm1.7 4c.6 0 1.2-.2 1.7-.6l1.4 1.4c-.9.7-2 1.1-3.1 1.1-2.8 0-5-2.2-5-5 0-1.2.4-2.3 1.1-3.1l1.4 1.4c-.3.6-.5 1.2-.5 1.8 0 1.7 1.3 3 3 3zm-10.9-2.7c-.1-.2-.1-.5 0-.6 1.7-2.1 3.4-3.7 5.1-4.8l1.2 1.2c-.9 1.1-1.4 2.5-1.4 3.9 0 3.3 2.7 6 6 6 1.4 0 2.8-.5 3.9-1.4l1 1c-5.3 3-10.4 1.2-15.8-5.3z" fill="#000000" style="fill: rgb(0, 0, 0);"></path></g></g><g id="colored_line" display="none"><g display="inline"><g><path d="m19.4 17.1c-.1 0-.3-.1-.4-.2-.2-.2-.1-.5.1-.7 1.3-1 2.6-2.3 3.8-3.9.1-.2.1-.5 0-.6-4.9-5.9-9.8-7.9-14.6-5.9-.3.1-.5 0-.7-.3 0-.2.1-.5.3-.6 5.2-2.2 10.5-.1 15.7 6.2.4.6.4 1.3 0 1.9-1.3 1.6-2.7 3-4 4 0 0-.1.1-.2.1z" fill="#1689fc" style="fill: rgb(231, 13, 101);"></path></g><g><path d="m12 20c-3.9 0-7.8-2.4-11.7-7.1-.4-.6-.4-1.3 0-1.9 1.9-2.2 3.8-4 5.7-5.2l.5.8c-1.8 1.1-3.6 2.8-5.4 5-.1.2-.1.5 0 .6 5.5 6.7 10.9 8.4 16.4 5l.5.9c-2 1.3-4 1.9-6 1.9z" fill="#1689fc" style="fill: rgb(231, 13, 101);"></path></g><g><path d="m17 14.7c-.1 0-.1 0-.2 0-.3-.1-.4-.4-.3-.7.3-.6.4-1.3.4-2 0-2.8-2.2-5-5-5-.7 0-1.4.1-2 .4-.3.1-.5 0-.7-.3-.1-.3 0-.5.3-.7.9-.2 1.7-.4 2.5-.4 3.3 0 6 2.7 6 6 0 .8-.2 1.6-.5 2.4-.1.2-.3.3-.5.3z" fill="#3e5959" style="fill: rgb(0, 0, 0);"></path></g><g><path d="m12 15c-1.7 0-3-1.3-3-3 0-.8.3-1.6.9-2.1l.7.7c-.4.4-.6.9-.6 1.4 0 1.1.9 2 2 2 .5 0 1-.2 1.4-.6l.7.7c-.5.6-1.3.9-2.1.9z" fill="#1689fc" style="fill: rgb(231, 13, 101);"></path></g><g><path d="m14.5 12.2c-.2 0-.5-.2-.5-.4-.1-.9-.8-1.6-1.7-1.7-.3 0-.5-.3-.4-.6 0-.3.3-.5.6-.4 1.3.2 2.4 1.2 2.6 2.6-.1.2-.3.4-.6.5z" fill="#1689fc" style="fill: rgb(231, 13, 101);"></path></g><path d="m23.9 23.1-23-23c-.2-.1-.6-.1-.8 0s-.1.6 0 .8l7.3 7.3c-.9 1-1.4 2.4-1.4 3.8 0 3.3 2.7 6 6 6 1.4 0 2.8-.5 3.9-1.4l7.3 7.3c.1.1.2.1.4.1s.3 0 .4-.1c0-.2 0-.6-.1-.8zm-11.9-6.1c-2.8 0-5-2.2-5-5 0-1.2.4-2.3 1.1-3.1l7 7c-.8.7-1.9 1.1-3.1 1.1z" fill="#3e5959" style="fill: rgb(0, 0, 0);"></path></g></g><g id="filled_line"><g><path d="m6.3 6.3 11.5 11.5c-5.7 3.5-11.3 1.8-17-5.1-.3-.4-.3-.9 0-1.3 1.8-2.3 3.6-4 5.5-5.1z" fill="#b7e0f6"></path><path d="m23.3 12.6c-1.4 1.7-2.7 3-4.1 4.1l-11.3-11.3c5.1-2.3 10.3-.3 15.4 6 .3.3.3.9 0 1.2z" fill="#b7e0f6"></path><path d="m8.1 8.1 7.8 7.8c-1 1-2.4 1.6-3.9 1.6-3 0-5.5-2.5-5.5-5.5 0-1.5.6-2.9 1.6-3.9z" fill="#cfd3d4" style="fill: rgb(163, 20, 240);"></path><path d="m17.5 12c0 .9-.2 1.7-.6 2.4l-7.3-7.3c.7-.4 1.6-.6 2.4-.6 3 0 5.5 2.5 5.5 5.5z" fill="#cfd3d4" style="fill: rgb(163, 20, 240);"></path><path d="m10.2 10.2 3.5 3.5c-.5.5-1.1.7-1.8.7-1.4 0-2.5-1.1-2.5-2.5.1-.6.4-1.2.8-1.7z" fill="#1689fc" style="fill: rgb(231, 13, 101);"></path><path d="m14.5 12-2.5-2.5c1.4 0 2.5 1.1 2.5 2.5z" fill="#1689fc" style="fill: rgb(231, 13, 101);"></path><path d="m16.9 16.9.8.8c-3.9 2.4-7.9 2.3-11.8-.2 3.7 2.1 7.4 2 11-.6z" fill="#81c8ee"></path><path d="m23.3 12.6c-1.4 1.7-2.7 3-4.1 4.1l-.8-.8c1.2-1 2.4-2.3 3.6-3.9-4.7-5.9-9.3-8.1-14-6.5l-.1-.1c5.1-2.3 10.2-.3 15.4 5.9.3.4.3 1 0 1.3z" fill="#81c8ee"></path><g fill="#384949"><path d="m8.3 5.8c4.8-2 9.7 0 14.6 5.9.1.2.1.5 0 .6-1.3 1.5-2.6 2.8-3.8 3.9-.2.2-.3.5-.1.7.1.1.2.2.4.2.1 0 .2 0 .3-.1 1.3-1.1 2.7-2.4 4-4 .4-.5.4-1.3 0-1.9-5.2-6.4-10.5-8.4-15.8-6.2-.2.1-.3.4-.2.6.1.3.4.4.6.3z" fill="#384949" style="fill: rgb(0, 0, 0);"></path><path d="m16.8 14.7h.2c.2 0 .4-.1.5-.3.3-.8.5-1.6.5-2.4 0-3.3-2.7-6-6-6-.8 0-1.6.2-2.4.5-.3.1-.4.4-.3.7.1.2.4.3.7.2.6-.3 1.3-.4 2-.4 2.8 0 5 2.2 5 5 0 .7-.1 1.4-.4 2-.1.3 0 .6.2.7z" fill="#384949" style="fill: rgb(0, 0, 0);"></path><path d="m11.8 9.5c0 .3.2.5.4.6.9.1 1.6.8 1.7 1.7 0 .3.2.4.5.4h.1c.3 0 .5-.3.4-.6-.2-1.3-1.2-2.4-2.6-2.6-.2 0-.4.2-.5.5z" fill="#384949" style="fill: rgb(0, 0, 0);"></path><path d="m23.9 23.1-23-23c-.2-.1-.6-.1-.8 0s-.1.6 0 .8l5.3 5.3c-1.6 1.2-3.4 2.8-5.1 4.9-.4.5-.4 1.3 0 1.9 3.9 4.6 7.8 7 11.7 7 1.9 0 3.8-.6 5.6-1.6l5.5 5.5c.1.1.2.1.4.1s.3 0 .4-.1c.1-.2.1-.6 0-.8zm-13.6-12.1 2.7 2.7c-.3.2-.6.3-1 .3-1.1 0-2-.9-2-2 0-.4.1-.7.3-1zm1.7 4c.6 0 1.2-.2 1.7-.6l1.4 1.4c-.9.7-2 1.1-3.1 1.1-2.8 0-5-2.2-5-5 0-1.2.4-2.3 1.1-3.1l1.4 1.4c-.3.6-.5 1.2-.5 1.8 0 1.7 1.3 3 3 3zm-10.9-2.7c-.1-.2-.1-.5 0-.6 1.7-2.1 3.4-3.7 5.1-4.8l1.2 1.2c-.9 1.1-1.4 2.5-1.4 3.9 0 3.3 2.7 6 6 6 1.4 0 2.8-.5 3.9-1.4l1 1c-5.3 3-10.4 1.2-15.8-5.3z" fill="#384949" style="fill: rgb(0, 0, 0);"></path></g></g></g><g id="duo_tone_1_" display="none"><path d="m12 6.5c-.9 0-1.7.2-2.4.6l2.4 2.4c1.4 0 2.5 1.1 2.5 2.5l2.4 2.4c.4-.7.6-1.6.6-2.4 0-3-2.5-5.5-5.5-5.5zm0 8c-1.4 0-2.5-1.1-2.5-2.5 0-.7.3-1.3.7-1.8l-2.1-2.1c-1 1-1.6 2.4-1.6 3.9 0 3 2.5 5.5 5.5 5.5 1.5 0 2.9-.6 3.9-1.6l-2.1-2.1c-.5.4-1.1.7-1.8.7z" display="inline" fill="#00ecce"></path><g display="inline" fill="#01a28e"><path d="m8.3 5.8c4.8-2 9.7 0 14.6 5.9.1.2.1.5 0 .6-1.3 1.5-2.6 2.8-3.8 3.9-.2.2-.3.5-.1.7.1.1.2.2.4.2.1 0 .2 0 .3-.1 1.3-1.1 2.7-2.4 4-4 .4-.5.4-1.3 0-1.9-5.2-6.4-10.5-8.4-15.8-6.2-.2.1-.3.4-.2.6.1.3.4.4.6.3z" fill="#01a28e"></path><path d="m16.8 14.7h.2c.2 0 .4-.1.5-.3.3-.8.5-1.6.5-2.4 0-3.3-2.7-6-6-6-.8 0-1.6.2-2.4.5-.3.1-.4.4-.3.7.1.2.4.3.7.2.6-.3 1.3-.4 2-.4 2.8 0 5 2.2 5 5 0 .7-.1 1.4-.4 2-.1.3 0 .6.2.7z" fill="#01a28e"></path><path d="m11.8 9.5c0 .3.2.5.4.6.9.1 1.6.8 1.7 1.7 0 .3.2.4.5.4h.1c.3 0 .5-.3.4-.6-.2-1.3-1.2-2.4-2.6-2.6-.2 0-.4.2-.5.5z" fill="#01a28e"></path><path d="m23.9 23.1-23-23c-.2-.1-.6-.1-.8 0s-.1.6 0 .8l5.3 5.3c-1.6 1.2-3.4 2.8-5.1 4.9-.4.5-.4 1.3 0 1.9 3.9 4.6 7.8 7 11.7 7 1.9 0 3.8-.6 5.6-1.6l5.5 5.5c.1.1.2.1.4.1s.3 0 .4-.1c.1-.2.1-.6 0-.8zm-13.6-12.1 2.7 2.7c-.3.2-.6.3-1 .3-1.1 0-2-.9-2-2 0-.4.1-.7.3-1zm1.7 4c.6 0 1.2-.2 1.7-.6l1.4 1.4c-.9.7-2 1.1-3.1 1.1-2.8 0-5-2.2-5-5 0-1.2.4-2.3 1.1-3.1l1.4 1.4c-.3.6-.5 1.2-.5 1.8 0 1.7 1.3 3 3 3zm-10.9-2.7c-.1-.2-.1-.5 0-.6 1.7-2.1 3.4-3.7 5.1-4.8l1.2 1.2c-.9 1.1-1.4 2.5-1.4 3.9 0 3.3 2.7 6 6 6 1.4 0 2.8-.5 3.9-1.4l1 1c-5.3 3-10.4 1.2-15.8-5.3z" fill="#01a28e"></path></g></g><g id="flat" display="none"><g display="inline"><path d="m0 12c0 .3.1.7.3.9 3.9 4.7 7.8 7.1 11.7 7.1 2 0 3.9-.6 5.8-1.8.1 0 .2-.1.2-.1l-6-6.1z" fill="#b7e0f6"></path><path d="m6 12c0 3.3 2.7 6 6 6 1.7 0 3.2-.7 4.2-1.8l-4.2-4.2z" fill="#cfd3d4" style="fill: rgb(163, 20, 240);"></path><path d="m9 12c0 1.7 1.3 3 3 3 .8 0 1.6-.3 2.1-.9l-2.1-2.1z" fill="#1689fc" style="fill: rgb(231, 13, 101);"></path><path d="m14 12 5.3 5.3c1.5-1.1 2.9-2.6 4.4-4.3.2-.3.3-.6.3-.9h-10z" fill="#b7e0f6"></path><path d="m17.1 15.1c.6-.9.9-2 .9-3.1h-4z" fill="#cfd3d4" style="fill: rgb(163, 20, 240);"></path><path d="m14.9 12.9c.1-.3.1-.6.1-.9h-1z" fill="#1689fc" style="fill: rgb(231, 13, 101);"></path><path d="m24 12c0-.3-.1-.7-.3-1-5.4-6.6-11-8.5-16.5-5.8l6.8 6.8z" fill="#cae8f9"></path><path d="m18 12c0-3.3-2.7-6-6-6-1.2 0-2.2.3-3.1.9l5.1 5.1z" fill="#f0f0f0" style="fill: rgb(0, 0, 0);"></path><path d="m15 12c0-1.7-1.3-3-3-3-.3 0-.6 0-.9.1l2.9 2.9z" fill="#18a7fc"></path><path d="m12 12-6.1-6.1c-1.9 1.2-3.7 2.9-5.6 5.1-.2.3-.3.7-.3 1z" fill="#cae8f9"></path><path d="m7.8 7.8c-1.1 1-1.8 2.5-1.8 4.2h6z" fill="#f0f0f0" style="fill: rgb(0, 0, 0);"></path><path d="m9.9 9.9c-.6.5-.9 1.3-.9 2.1h3z" fill="#18a7fc"></path><path d="m12.7 12h-1.4l11.9 11.9c.1.1.2.1.4.1s.3 0 .4-.1c.2-.2.2-.5 0-.7z" fill="#fd003a" style="fill: rgb(0, 0, 0);"></path><path d="m11.3 12h1.4l-11.8-11.9c-.2-.1-.6-.1-.8 0s-.1.6 0 .8z" fill="#fd3c65" style="fill: rgb(0, 0, 0);"></path></g></g></svg>