<?xml version="1.0" encoding="iso-8859-1"?>
<svg height="800px" width="800px" version="1.1" id="Layer_1" xmlns="http://www.w3.org/2000/svg" xmlns:xlink="http://www.w3.org/1999/xlink" 
	 viewBox="0 0 512 512" xml:space="preserve">
<path style="fill:#89CD38;" d="M213.903,319.112v20.35c0,6.799-4.088,12.931-10.364,15.547l-67.232,28.013
	c-14.204,5.919-23.456,22.005-23.456,37.392v81.081h286.314v-81.081c0-15.387-9.253-31.474-23.456-37.392l-67.232-28.013
	c-6.276-2.615-10.364-8.748-10.364-15.547v-20.35H213.903z"/>
<path style="fill:#FF5957;" d="M298.114,339.462v-20.35h-84.211v20.35c0,6.799-4.088,12.931-10.364,15.547l-66.345,27.644
	c0.11,1.656,0.17,2.549,0.17,2.549c15.319,25.14,62.658,43.46,118.694,43.46c56.005,0,103.324-18.299,118.669-43.418l0.795-2.298
	l-67.046-27.935C302.202,352.395,298.114,346.262,298.114,339.462z"/>
<path style="fill:#1990DF;" d="M384.561,122.755c6.536-6.672,10.572-15.804,10.572-25.882c0-20.43-16.562-36.992-36.992-36.992
	c-3.228,0-6.359,0.416-9.343,1.193c0.033-0.572,0.055-1.148,0.055-1.729c0-15.983-12.957-28.94-28.94-28.94
	c-8.653,0-16.414,3.803-21.716,9.822c-9.9-12.25-25.04-20.091-42.017-20.091c-17.014,0-32.182,7.876-42.08,20.17
	c-5.305-6.065-13.095-9.902-21.786-9.902c-15.983,0-28.94,12.957-28.94,28.94c0,0.581,0.022,1.156,0.056,1.729
	c-2.985-0.777-6.115-1.193-9.343-1.193c-20.43,0-36.992,16.562-36.992,36.992c0,10.078,4.035,19.21,10.572,25.882
	c-8.973,8.167-14.604,19.939-14.604,33.027c0,24.656,19.984,44.643,44.639,44.649c-0.099-0.798-0.156-1.609-0.156-2.433
	c0-10.839,8.787-19.626,19.626-19.626v-25.529h0.308c0-43.465,35.235-78.701,78.701-78.701c43.465,0,78.701,35.235,78.701,78.701
	v25.529c10.839,0,19.626,8.787,19.626,19.626c0,0.823-0.056,1.633-0.155,2.429c0.055,0,0.11,0.004,0.166,0.004
	c24.659,0,44.649-19.989,44.649-44.649C399.165,142.693,393.534,130.921,384.561,122.755z"/>
<path style="fill:#ECEBED;" d="M350.027,199.172v-30.438c0-51.823-42.012-93.835-93.835-93.835
	c-51.824,0-93.835,42.012-93.835,93.835h-0.368v30.439c-12.923,0-23.4,10.477-23.4,23.4c0,12.923,10.477,23.4,23.4,23.4v17.47
	c1.126,14.733,8.31,27.849,19.189,35.034l56.567,32.338c11.359,7.502,25.17,7.502,36.528,0l56.398-32.338
	c10.878-7.184,18.23-20.301,19.357-35.034v-17.47c12.923,0,23.4-10.477,23.4-23.4C373.427,209.649,362.95,199.172,350.027,199.172z"
	/>
<path style="fill:#1990DF;" d="M349.514,158.884c11.012-47.209-45.008-100.322-93.505-100.322
	c-48.566,0-97.102,53.113-93.161,100.524c5.793,5.735,13.758,9.28,22.554,9.28c9.586,0,18.183-4.212,24.057-10.881
	c10.968,13.57,27.739,22.256,46.547,22.256c18.848,0,35.65-8.724,46.616-22.345c5.876,6.719,14.507,10.969,24.135,10.969
	C335.655,168.366,343.705,164.738,349.514,158.884z"/>
<ellipse style="fill:#CC6BC2;" cx="77.994" cy="98.648" rx="67.338" ry="88.138"/>
<g>
	<circle style="fill:#FF5957;" cx="256.055" cy="251.826" r="16.714"/>
	<circle style="fill:#FF5957;" cx="451.061" cy="249.256" r="50.499"/>
</g>
<circle style="fill:#FFAF18;" cx="451.061" cy="249.256" r="20.339"/>
<path d="M10.652,511.942h-0.137c-5.77,0-10.447-4.677-10.447-10.447c0-5.77,4.677-10.447,10.447-10.447h0.137
	c5.77,0,10.447,4.677,10.447,10.447C21.099,507.265,16.422,511.942,10.652,511.942z"/>
<path d="M501.502,511.942h-0.137c-5.77,0-10.447-4.677-10.447-10.447c0-5.77,4.677-10.447,10.447-10.447h0.137
	c5.77,0,10.447,4.677,10.447,10.447C511.949,507.265,507.272,511.942,501.502,511.942z"/>
<path d="M472.299,399.843h-5.219v-5.219c0-5.77-4.677-10.447-10.447-10.447c-5.77,0-10.447,4.677-10.447,10.447v5.219h-5.219
	c-5.77,0-10.447,4.677-10.447,10.447c0,5.77,4.677,10.447,10.447,10.447h5.219v5.22c0,5.77,4.677,10.447,10.447,10.447
	c5.77,0,10.447-4.677,10.447-10.447v-5.22h5.219c5.77,0,10.447-4.677,10.447-10.447C482.745,404.52,478.068,399.843,472.299,399.843
	z"/>
<path d="M444.097,78.41c-2.673,0-5.348-1.02-7.387-3.06c-4.079-4.079-4.079-10.694,0-14.775l10.969-10.969
	c4.079-4.079,10.694-4.079,14.775,0c4.079,4.079,4.079,10.694,0,14.775L451.485,75.35C449.445,77.39,446.77,78.41,444.097,78.41z"/>
<path d="M501.553,138.478c-2.673,0-5.348-1.02-7.387-3.06l-12.536-12.536c-4.079-4.079-4.079-10.694,0-14.775
	c4.079-4.079,10.694-4.079,14.775,0l12.536,12.536c4.079,4.079,4.079,10.694,0,14.775
	C506.901,137.458,504.226,138.478,501.553,138.478z"/>
<path d="M10.446,244.629c-2.673,0-5.348-1.02-7.387-3.06c-4.079-4.079-4.079-10.694,0-14.775l7.313-7.313
	c4.079-4.079,10.694-4.079,14.775,0c4.079,4.079,4.079,10.694,0,14.775l-7.313,7.313C15.794,243.61,13.12,244.629,10.446,244.629z"
	/>
<path d="M133.974,338.729c-2.673,0-5.348-1.02-7.387-3.06l-5.256-5.256c-4.079-4.079-4.079-10.694,0-14.775
	c4.079-4.079,10.694-4.079,14.775,0l5.256,5.256c4.079,4.079,4.079,10.694,0,14.775
	C139.321,337.709,136.648,338.729,133.974,338.729z"/>
<path d="M467.568,491.049h-57.956v-70.634c0-20.362-12.289-39.704-29.884-47.036l-67.232-28.012
	c-2.39-0.996-3.935-3.313-3.935-5.903v-16.267l27.306-15.657c0.19-0.109,0.377-0.225,0.561-0.346
	c13.672-9.029,22.651-25.087,24.017-42.955c0.021-0.264,0.03-0.531,0.03-0.796v-8.673c13.566-4.413,23.399-17.178,23.399-32.197
	c0-6.384-1.791-12.352-4.875-17.453c18.126-9.031,30.614-27.749,30.614-49.338c0-12.181-4.068-23.975-11.384-33.527
	c4.787-7.528,7.352-16.269,7.352-25.382c0-26.158-21.282-47.44-47.44-47.44c-0.034,0-0.069,0-0.103,0
	c-4.405-16.936-19.828-29.475-38.124-29.475c-7.466,0-14.7,2.126-20.909,6.016c-11.716-10.45-26.843-16.285-42.826-16.285
	c-16.011,0-31.157,5.853-42.879,16.334c-6.224-3.923-13.486-6.065-20.987-6.065c-18.296,0-33.718,12.539-38.124,29.475
	c-2.841-0.014-5.647,0.243-8.407,0.733c-3.232-7.268-7.198-14.058-11.878-20.185C119.165,10.685,99.307,0.059,77.989,0.059
	S36.814,10.685,22.074,29.98C7.973,48.441,0.207,72.827,0.207,98.65s7.766,50.209,21.868,68.668
	c11.988,15.693,27.363,25.65,44.152,28.822c-1.166,4.032-3.028,7.542-5.163,11.549c-4.099,7.693-8.746,16.412-8.746,30.024
	c0,13.553,4.612,22.09,8.681,29.621c3.632,6.723,6.501,12.032,6.501,21.298c0,8.981-2.746,13.917-6.224,20.167
	c-2.139,3.843-4.564,8.201-6.334,13.601c-1.797,5.482,1.191,11.384,6.673,13.18c1.081,0.354,2.177,0.522,3.256,0.522
	c4.393,0,8.483-2.794,9.924-7.196c1.147-3.499,2.81-6.487,4.736-9.949c3.948-7.094,8.861-15.924,8.861-30.326
	c0-14.548-4.997-23.797-9.011-31.229c-3.447-6.38-6.17-11.42-6.17-19.691c0-8.394,2.777-13.604,6.291-20.199
	c3.114-5.843,6.536-12.271,8.069-21.004c8.745-1.336,17.131-4.501,24.891-9.347c5.3,7.596,12.425,13.723,20.623,17.842
	c-3.127,5.126-4.94,11.136-4.94,17.567c0,15.019,9.833,27.785,23.399,32.197v8.673c0,0.265,0.01,0.532,0.03,0.796
	c1.372,17.941,10.287,33.998,23.848,42.955c0.187,0.123,0.378,0.24,0.572,0.352l27.463,15.7v16.217c0,2.59-1.545,4.907-3.935,5.903
	l-67.233,28.013c-17.595,7.332-29.883,26.673-29.883,47.035v70.634h-57.96c-5.77,0-10.447,4.677-10.447,10.447
	c0,5.77,4.677,10.447,10.447,10.447h423.121c5.77,0,10.447-4.677,10.447-10.447C478.015,495.725,473.338,491.049,467.568,491.049z
	 M21.1,98.65c0-42.842,25.521-77.696,56.89-77.696s56.89,34.854,56.89,77.696s-25.521,77.696-56.89,77.696S21.1,141.492,21.1,98.65z
	 M128.574,173.672c1.841-2.002,3.622-4.117,5.332-6.355c14.102-18.459,21.868-42.845,21.868-68.668
	c0-9.708-1.099-19.213-3.219-28.278c0.509-0.028,1.019-0.047,1.531-0.047c2.271,0,4.53,0.288,6.713,0.857
	c3.232,0.84,6.676,0.085,9.26-2.036c2.583-2.121,3.996-5.35,3.799-8.686c-0.022-0.37-0.039-0.741-0.039-1.116
	c0-10.197,8.296-18.492,18.494-18.492c5.329,0,10.403,2.308,13.923,6.333c2.033,2.324,4.987,3.627,8.076,3.567
	c3.087-0.064,5.988-1.489,7.924-3.893c8.327-10.343,20.699-16.275,33.943-16.275c13.213,0,25.567,5.909,33.893,16.21
	c1.935,2.394,4.826,3.812,7.903,3.878c3.062,0.073,6.026-1.229,8.061-3.538c3.516-3.992,8.575-6.282,13.878-6.282
	c10.197,0,18.494,8.296,18.494,18.492c0,0.375-0.017,0.746-0.039,1.116c-0.196,3.337,1.217,6.566,3.799,8.686
	s6.026,2.877,9.26,2.036c2.183-0.568,4.442-0.857,6.713-0.857c14.638,0,26.547,11.908,26.547,26.547
	c0,6.982-2.695,13.577-7.587,18.571c-1.986,2.027-3.062,4.773-2.981,7.609c0.081,2.836,1.312,5.518,3.411,7.427
	c7.111,6.472,11.189,15.694,11.189,25.302c0,16.827-12.217,30.844-28.245,33.673v-30.345c0-4.399-2.722-8.156-6.572-9.695
	c-3.878-1.796-8.623-1.096-11.805,2.112c-4.091,4.123-9.539,6.393-15.342,6.393c-6.227,0-12.159-2.697-16.272-7.4
	c-2.033-2.324-4.988-3.641-8.076-3.567c-3.087,0.064-5.988,1.489-7.925,3.893c-9.439,11.725-23.464,18.45-38.479,18.45
	c-14.979,0-28.983-6.698-38.421-18.377c-1.935-2.394-4.826-3.812-7.903-3.878c-3.064-0.049-6.026,1.229-8.061,3.538
	c-4.11,4.664-10.021,7.34-16.219,7.34c-5.729,0-11.129-2.222-15.204-6.256c-4.1-4.06-10.715-4.026-14.773,0.073
	c-0.041,0.041-0.074,0.086-0.114,0.127c-2.301,1.916-3.767,4.801-3.767,8.03v29.499
	C142.044,187.628,133.647,181.881,128.574,173.672z M186.679,289.587c-7.983-5.405-13.282-15.29-14.243-26.566v-17.05
	c0-5.77-4.677-10.447-10.447-10.447c-7.142,0-12.953-5.811-12.953-12.953c0-5.181,3.066-9.651,7.473-11.72
	c0.396,0.008,0.792,0.023,1.189,0.023c0.001,0,0.001,0,0.002,0c1.826,0,3.541-0.471,5.034-1.294
	c5.42-0.383,9.702-4.891,9.702-10.409v-22.379c4.14,1.321,8.499,2.018,12.965,2.018c8.346,0,16.423-2.46,23.279-6.951
	c12.86,11.75,29.612,18.326,47.325,18.326c17.748,0,34.519-6.595,47.386-18.383c6.873,4.527,14.981,7.008,23.366,7.008
	c4.419,0,8.73-0.677,12.824-1.967v22.327c0,5.536,4.309,10.054,9.755,10.412c1.417,0.777,3.031,1.242,4.753,1.285
	c0.136,0.004,0.312,0.007,0.428,0.007c0.331,0,0.658-0.02,0.988-0.025c4.408,2.068,7.476,6.538,7.476,11.721
	c0,7.142-5.811,12.953-12.953,12.953c-5.77,0-10.447,4.677-10.447,10.447v17.048c-0.949,11.046-6.441,21.17-14.416,26.571
	l-56.088,32.161c-0.191,0.11-0.377,0.225-0.561,0.346c-7.831,5.172-17.181,5.173-25.014,0c-0.187-0.123-0.377-0.241-0.572-0.352
	L186.679,289.587z M245.613,491.049H123.298v-70.634c0-8.69,3.994-17.455,9.986-23.082c19.652,23.61,62.663,39.586,112.33,41.563
	v52.153H245.613z M152.671,387.521l54.888-22.87c10.2-4.252,16.792-14.138,16.792-25.189v-4.274l7.936,4.537
	c7.333,4.763,15.528,7.143,23.722,7.143c8.197,0,16.395-2.383,23.728-7.148l7.93-4.547v4.287c0,11.052,6.592,20.939,16.793,25.19
	l54.957,22.898c-16.844,16.236-54.418,30.664-103.358,30.664C207.081,418.213,169.5,403.772,152.671,387.521z M388.719,491.049
	H266.506v-52.153c49.62-1.975,92.611-17.93,112.284-41.507c5.96,5.629,9.929,14.364,9.929,23.026V491.049z"/>
<path d="M224.795,224.73h1.045c5.77,0,10.447-4.677,10.447-10.447s-4.677-10.447-10.447-10.447h-1.045v-1.045
	c0-5.77-4.677-10.447-10.447-10.447s-10.447,4.677-10.447,10.447v1.045h-1.045c-5.77,0-10.447,4.677-10.447,10.447
	s4.677,10.447,10.447,10.447h1.045v1.045c0,5.77,4.677,10.447,10.447,10.447s10.447-4.677,10.447-10.447V224.73z"/>
<path d="M286.279,224.73h1.045v1.045c0,5.77,4.677,10.447,10.447,10.447c5.77,0,10.447-4.677,10.447-10.447v-1.045h1.045
	c5.77,0,10.447-4.677,10.447-10.447s-4.677-10.447-10.447-10.447h-1.045v-1.045c0-5.77-4.677-10.447-10.447-10.447
	c-5.77,0-10.447,4.677-10.447,10.447v1.045h-1.045c-5.77,0-10.447,4.677-10.447,10.447S280.509,224.73,286.279,224.73z"/>
<path d="M256.059,278.984c14.976,0,27.161-12.185,27.161-27.161s-12.185-27.161-27.161-27.161
	c-14.976,0-27.161,12.185-27.161,27.161S241.083,278.984,256.059,278.984z M256.059,245.555c3.457,0,6.268,2.811,6.268,6.268
	s-2.811,6.268-6.268,6.268c-3.457,0-6.268-2.811-6.268-6.268S252.604,245.555,256.059,245.555z"/>
<path d="M284.032,300.937c4.625-3.451,5.575-9.996,2.126-14.62c-3.451-4.624-9.995-5.575-14.62-2.126
	c-4.484,3.345-9.82,5.114-15.434,5.114c-5.563,0-10.861-1.741-15.324-5.036c-4.642-3.426-11.183-2.442-14.609,2.2
	c-3.426,4.641-2.441,11.183,2.2,14.609c8.082,5.966,17.672,9.12,27.734,9.12C266.255,310.197,275.913,306.995,284.032,300.937z"/>
<path d="M512,249.258c0-33.602-27.338-60.94-60.94-60.94c-33.603,0-60.94,27.338-60.94,60.94c0,30.039,21.853,55.054,50.493,60.025
	v51.881c0,5.77,4.677,10.447,10.447,10.447c5.77,0,10.447-4.677,10.447-10.447v-51.881C490.147,304.312,512,279.297,512,249.258z
	 M451.06,289.304c-22.082,0-40.047-17.965-40.047-40.047s17.965-40.047,40.047-40.047s40.047,17.965,40.047,40.047
	S473.142,289.304,451.06,289.304z"/>
<path d="M451.06,218.472c-16.976,0-30.786,13.81-30.786,30.786s13.81,30.786,30.786,30.786s30.786-13.81,30.786-30.786
	S468.035,218.472,451.06,218.472z M451.06,259.15c-5.455,0-9.893-4.438-9.893-9.893c0-5.455,4.439-9.893,9.893-9.893
	s9.893,4.438,9.893,9.893C460.953,254.712,456.515,259.15,451.06,259.15z"/>
<path d="M292.404,475.895h-0.137c-5.77,0-10.447-4.677-10.447-10.447c0-5.77,4.677-10.447,10.447-10.447h0.137
	c5.77,0,10.447,4.677,10.447,10.447C302.85,471.218,298.173,475.895,292.404,475.895z"/>
<path d="M365.393,475.894h-39.193c-5.77,0-10.447-4.677-10.447-10.447c0-5.77,4.677-10.447,10.447-10.447h39.193
	c5.77,0,10.447,4.677,10.447,10.447C375.839,471.217,371.162,475.894,365.393,475.894z"/>
<path d="M221.661,475.894h-0.137c-5.77,0-10.447-4.677-10.447-10.447c0-5.77,4.677-10.447,10.447-10.447h0.137
	c5.77,0,10.447,4.677,10.447,10.447C232.107,471.217,227.43,475.894,221.661,475.894z"/>
</svg>